<svg width="39" height="96" viewBox="0 0 39 96" fill="none" xmlns="http://www.w3.org/2000/svg">
<path d="M24.2708 0L24.2824 0.00759645C24.3324 0.146778 23.9371 0.46782 23.8097 0.618286C20.4562 4.58192 19.363 9.55309 20.9087 14.4534C23.4803 22.7122 31.1016 27.2191 35.4064 34.4466C38.9061 40.3222 38.9112 44.9883 38.9133 51.5288L38.9148 61.6896L38.9068 95.4338C38.0988 94.7907 36.8493 93.5241 36.0927 92.792L30.6397 87.4584L9.94757 67.0709L4.39147 61.5268C3.42655 60.5502 2.16429 59.17 1.15839 58.2976C1.17815 59.3762 1.2436 60.4526 1.35459 61.5261C1.84841 66.7013 3.18198 73.1156 5.30085 77.8864C8.09288 84.1727 13.1706 90.1162 19.4455 93.1031C21.0238 93.8518 22.6832 94.4138 24.3917 94.7784C24.6589 94.8356 27.0307 95.1951 27.0712 95.2291C26.4182 95.3528 0.194631 95.2458 0.00704788 95.1814L0.00103829 45.5737L0.00842213 30.8267C-0.00714342 28.7192 -0.0011327 26.6117 0.0264509 24.5044C0.0392653 23.2166 0.024713 21.7482 0.143735 20.478C0.589634 24.8974 0.70851 27.9705 2.29555 32.2657C4.57927 38.4462 8.73664 42.9196 13.4563 47.3844C17.0159 50.7519 20.6944 54.0382 24.2752 57.4013C30.2516 63.0156 34.7461 67.9123 37.9099 75.5802C37.7803 65.1887 36.6429 57.8874 29.4726 49.8317C27.2384 47.3212 24.8326 45.1042 22.4442 42.7482C19.7561 40.0972 16.5512 37.1283 14.5071 33.9631C11.4253 29.2181 10.397 23.4286 11.6565 17.9137C13.2137 10.7736 18.1402 3.94135 24.2708 0Z" fill="#B24002"/>
</svg>
